
<svg id="Layer_1" data-name="Layer 1" xmlns="http://www.w3.org/2000/svg" viewBox="0 0 122.72 122.88">
    <title>wireless-network</title>
    <path fill="var(--my-white)" d="M24.57,76.69a4.88,4.88,0,0,1-7.32,6.47C5.68,70.08-.23,56.19,0,42.07.24,28.32,6.29,14.62,18.61,1.54a4.9,4.9,0,0,1,7.13,6.71C15.16,19.48,10,31,9.78,42.23c-.2,11.59,4.88,23.25,14.79,34.46ZM65.9,53v65.36a4.54,4.54,0,0,1-9.08,0V53a11.52,11.52,0,1,1,9.08,0ZM87.65,67.17A4.89,4.89,0,0,1,80.06,61c4.89-6,7.43-12.37,7.45-18.67s-2.37-12.45-7.32-18.52a4.89,4.89,0,1,1,7.59-6.17c6.43,7.88,9.52,16.27,9.5,24.69,0,8.61-3.32,17.06-9.63,24.84ZM42.66,61a4.89,4.89,0,0,1-7.59,6.17c-6.31-7.78-9.6-16.23-9.63-24.84,0-8.42,3.07-16.81,9.51-24.69a4.89,4.89,0,1,1,7.58,6.17c-5,6.07-7.33,12.36-7.32,18.52S37.78,55,42.66,61Zm62.81,22.16a4.88,4.88,0,0,1-7.32-6.47c9.92-11.21,15-22.87,14.79-34.46-.19-11.28-5.38-22.75-16-34a4.9,4.9,0,1,1,7.13-6.71c12.32,13.08,18.37,26.78,18.6,40.53.24,14.12-5.67,28-17.24,41.09Z"/></svg>
